# xmcd CD database file generated by OrangeCD 5.2
#
# Track frame offsets:
#	150
#	15627
#	37287
#	50805
#	64462
#	77447
#	90647
#	102997
#	115195
#	129265
#	142617
#	156020
#
# Disc length: 2282 seconds
#
# Revision: 0
# Processed by: cddbd v1.5.1PL2 Copyright (c) Steve Scherf et al.
# Submitted via: OrangeCD 5.2
#
DISCID=9908e80c
DTITLE=Waylon Jennings - Drinkin' And Dreamin'
DYEAR=2005
DGENRE=Country
TTITLE0=America
TTITLE1=I Ain't Living Long Like This
TTITLE2=Wrong
TTITLE3=Drinkin' And Dreamin'
TTITLE4=The Eagle
TTITLE5=Are You Sure Hank Done It This Way
TTITLE6=The Devil's On The Loose
TTITLE7=Waymore's Blues
TTITLE8=Waltz Me To Heaven
TTITLE9=I May Be Used (But Baby I Ain't Used Up)
TTITLE10=Never Could Toe The Mark
TTITLE11=What Bothers Me Most
EXTD=
EXTT0=
EXTT1=
EXTT2=
EXTT3=
EXTT4=
EXTT5=
EXTT6=
EXTT7=
EXTT8=
EXTT9=
EXTT10=
EXTT11=
PLAYORDER=
